<svg width="24" height="24" viewBox="0 0 24 24" fill="none" xmlns="http://www.w3.org/2000/svg">
<path d="M13.7007 11.0181L18.2393 8.39773C18.6198 8.17806 19.1063 8.30842 19.326 8.6889L19.4227 8.85639C20.0482 9.93986 20.0715 11.2692 19.4842 12.3739C18.7688 13.7197 17.1343 14.283 15.7416 13.6637L13.7944 12.7979C13.0476 12.4658 12.9929 11.4268 13.7007 11.0181Z" stroke="#007BFF"/>
<path d="M12 13.9637V19.2044C12 19.6437 11.6438 19.9999 11.2045 19.9999H11.0111C9.75999 19.9999 8.59716 19.3554 7.93409 18.2945C7.12628 17.002 7.45566 15.3049 8.68832 14.4084L10.4118 13.1549C11.0728 12.6742 12 13.1464 12 13.9637Z" stroke="#007BFF"/>
<path d="M13.7007 12.9817L18.2393 15.6021C18.6198 15.8217 18.7501 16.3082 18.5305 16.6887L18.4338 16.8562C17.8082 17.9397 16.6687 18.6245 15.4183 18.6683C13.8951 18.7216 12.59 17.5878 12.43 16.072L12.2062 13.9527C12.1204 13.14 12.9929 12.573 13.7007 12.9817Z" stroke="#007BFF"/>
<path d="M10.2993 12.9819L5.76069 15.6023C5.38021 15.8219 4.89369 15.6916 4.67402 15.3111L4.57732 15.1436C3.95178 14.0601 3.92851 12.7308 4.51576 11.6261C5.23119 10.2803 6.86565 9.71696 8.25834 10.3363L10.2056 11.2021C10.9524 11.5342 11.0071 12.5732 10.2993 12.9819Z" stroke="#007BFF"/>
<path d="M10.2991 11.0181L5.76043 8.39772C5.37995 8.17805 5.24959 7.69153 5.46926 7.31105L5.56596 7.14356C6.1915 6.06009 7.33107 5.3753 8.58139 5.33152C10.1046 5.27818 11.4097 6.41201 11.5698 7.92776L11.7935 10.0471C11.8794 10.8599 11.0069 11.4268 10.2991 11.0181Z" stroke="#007BFF"/>
<path d="M12 10.0362V4.79549C12 4.35616 12.3562 4 12.7955 4H12.9889C14.24 4 15.4028 4.6445 16.0659 5.70541C16.8737 6.99791 16.5443 8.69505 15.3117 9.59153L13.5882 10.845C12.9272 11.3257 12 10.8535 12 10.0362Z" stroke="#007BFF"/>
</svg>
